<svg height="464pt" viewBox="0 -64 464 464" width="464pt" xmlns="http://www.w3.org/2000/svg"><path d="m24 288h440v32c-.027344 8.824219-7.175781 15.972656-16 16h-432c-8.824219-.027344-15.9726562-7.175781-16-16v-32zm0 0" fill="#898890"/><path d="m440 32v256h-416v-256c0-17.671875 14.328125-32 32-32h352c17.671875 0 32 14.328125 32 32zm0 0" fill="#78b9eb"/><path d="m440 32v256h-336l288-288h16c17.671875 0 32 14.328125 32 32zm0 0" fill="#5aaae7"/><path d="m200 304h64v16h-64zm0 0" fill="#787680"/><g fill="#1e81ce"><path d="m178.34375 109.65625-24-24c-3.121094-3.125-3.121094-8.1875 0-11.3125l24-24 11.3125 11.3125-18.34375 18.34375 18.34375 18.34375zm0 0"/><path d="m285.65625 109.65625-11.3125-11.3125 18.34375-18.34375-18.34375-18.34375 11.3125-11.3125 24 24c3.121094 3.125 3.121094 8.1875 0 11.3125zm0 0"/><path d="m208.574219 117.027344 32.007812-79.996094 14.863281 5.945312-32.007812 79.996094zm0 0"/></g><path d="m168 136h48v16h-48zm0 0" fill="#3d9ae2"/><path d="m152 168h32v16h-32zm0 0" fill="#96c8ef"/><path d="m200 168h32v16h-32zm0 0" fill="#3d9ae2"/><path d="m120 200h96v16h-96zm0 0" fill="#96c8ef"/><path d="m136 136h16v16h-16zm0 0" fill="#3d9ae2"/><path d="m144 232h96v16h-96zm0 0" fill="#3d9ae2"/><path d="m256 232h16v16h-16zm0 0" fill="#96c8ef"/><path d="m248 168h32v16h-32zm0 0" fill="#96c8ef"/><path d="m232 200h32v16h-32zm0 0" fill="#3d9ae2"/><path d="m280 200h32v16h-32zm0 0" fill="#3d9ae2"/><path d="m232 136h64v16h-64zm0 0" fill="#96c8ef"/><path d="m288 232h48v16h-48zm0 0" fill="#96c8ef"/></svg>