<svg viewBox="0 -110 512 512" xmlns="http://www.w3.org/2000/svg"><path d="m472.160156 0h-432.320312c-22.003906 0-39.839844 17.835938-39.839844 39.839844v212.132812c0 22.003906 17.835938 39.839844 39.839844 39.839844h30.3125v-130.859375c0-13.648437 11.105468-24.753906 24.753906-24.753906h322.1875c13.648438 0 24.753906 11.105469 24.753906 24.753906v130.859375h30.3125c22.003906 0 39.839844-17.835938 39.839844-39.839844v-212.132812c0-22.003906-17.835938-39.839844-39.839844-39.839844zm0 0" fill="#889cb0"/><path d="m417.09375 125.894531h-322.1875c-19.359375 0-35.058594 15.695313-35.058594 35.058594v130.859375h392.304688v-130.859375c0-19.359375-15.699219-35.058594-35.058594-35.058594zm0 0" fill="#c2eafb"/><path d="m417.09375 125.894531h-322.1875c-19.359375 0-35.058594 15.695313-35.058594 35.058594v50.230469c0-19.363282 15.699219-35.058594 35.058594-35.058594h322.1875c19.363281 0 35.058594 15.695312 35.058594 35.058594v-50.230469c0-19.359375-15.699219-35.058594-35.058594-35.058594zm0 0" fill="#91d4f2"/><path d="m109.757812 125.894531h48.914063v165.917969h-48.914063zm0 0" fill="#91d4f2"/><path d="m109.757812 125.894531h48.914063v50.226563h-48.914063zm0 0" fill="#59c2e8"/><path d="m207.585938 125.894531h48.914062v165.917969h-48.914062zm0 0" fill="#91d4f2"/><path d="m207.585938 125.894531h48.914062v50.226563h-48.914062zm0 0" fill="#59c2e8"/><path d="m305.414062 125.894531h48.910157v165.917969h-48.910157zm0 0" fill="#91d4f2"/><path d="m305.414062 125.894531h48.910157v50.226563h-48.910157zm0 0" fill="#59c2e8"/><path d="m417.09375 125.894531h-13.855469v165.917969h48.914063v-130.859375c0-19.359375-15.699219-35.058594-35.058594-35.058594zm0 0" fill="#91d4f2"/><path d="m452.152344 211.179688v-50.226563c0-19.359375-15.695313-35.058594-35.058594-35.058594h-13.855469v50.230469h13.855469c19.359375 0 35.054688 15.691406 35.058594 35.054688zm0 0" fill="#59c2e8"/><g fill="#6a829a"><path d="m109.757812 237.226562c-9.632812 0-17.445312-7.8125-17.445312-17.449218v-47.980469c0-9.636719 7.8125-17.445313 17.445312-17.445313 9.636719 0 17.449219 7.8125 17.449219 17.445313v47.980469c0 9.636718-7.8125 17.449218-17.449219 17.449218zm0 0"/><path d="m207.585938 237.226562c-9.636719 0-17.449219-7.8125-17.449219-17.449218v-47.980469c0-9.636719 7.8125-17.445313 17.449219-17.445313 9.636718 0 17.445312 7.8125 17.445312 17.445313v47.980469c.003906 9.636718-7.808594 17.449218-17.445312 17.449218zm0 0"/><path d="m305.414062 237.226562c-9.636718 0-17.449218-7.8125-17.449218-17.449218v-47.980469c0-9.636719 7.8125-17.445313 17.449218-17.445313 9.636719 0 17.445313 7.8125 17.445313 17.445313v47.980469c0 9.636718-7.8125 17.449218-17.445313 17.449218zm0 0"/><path d="m403.238281 237.226562c-9.636719 0-17.445312-7.8125-17.445312-17.449218v-47.980469c0-9.636719 7.808593-17.445313 17.445312-17.445313s17.449219 7.8125 17.449219 17.445313v47.980469c0 9.636718-7.8125 17.449218-17.449219 17.449218zm0 0"/></g><path d="m297.261719 104.5625h-82.523438c-10.941406 0-19.8125-8.871094-19.8125-19.8125v-35.089844c0-10.941406 8.871094-19.8125 19.8125-19.8125h82.523438c10.945312 0 19.816406 8.871094 19.816406 19.8125v35.089844c0 10.941406-8.871094 19.8125-19.816406 19.8125zm0 0" fill="#b9ecc2"/><path d="m297.261719 29.84375h-82.523438c-10.941406 0-19.8125 8.871094-19.8125 19.816406v29.628906c0-10.941406 8.871094-19.8125 19.8125-19.8125h82.523438c10.945312 0 19.816406 8.871094 19.816406 19.8125v-29.628906c0-10.945312-8.871094-19.816406-19.816406-19.816406zm0 0" fill="#73da8c"/><path d="m175.597656 79.339844c0 9.230468-7.480468 16.710937-16.710937 16.710937-9.226563 0-16.707031-7.480469-16.707031-16.710937 0-9.226563 7.480468-16.707032 16.707031-16.707032 9.230469 0 16.710937 7.480469 16.710937 16.707032zm0 0" fill="#6a829a"/><path d="m126.46875 79.339844c0 9.230468-7.480469 16.710937-16.710938 16.710937-9.226562 0-16.707031-7.480469-16.707031-16.710937 0-9.226563 7.480469-16.707032 16.707031-16.707032 9.230469 0 16.710938 7.480469 16.710938 16.707032zm0 0" fill="#6a829a"/><path d="m77.339844 79.339844c0 9.230468-7.480469 16.710937-16.707032 16.710937-9.230468 0-16.710937-7.480469-16.710937-16.710937 0-9.226563 7.480469-16.707032 16.710937-16.707032 9.226563 0 16.707032 7.480469 16.707032 16.707032zm0 0" fill="#ff8a98"/><path d="m439.898438 50.484375h-89.617188c-4.265625 0-7.726562-3.457031-7.726562-7.726563 0-4.265624 3.460937-7.726562 7.726562-7.726562h89.617188c4.265624 0 7.722656 3.460938 7.722656 7.726562 0 4.269532-3.457032 7.726563-7.722656 7.726563zm0 0" fill="#516980"/><path d="m439.898438 77.523438h-89.617188c-4.265625 0-7.726562-3.457032-7.726562-7.726563 0-4.265625 3.460937-7.726563 7.726562-7.726563h89.617188c4.265624 0 7.722656 3.460938 7.722656 7.726563 0 4.269531-3.457032 7.726563-7.722656 7.726563zm0 0" fill="#516980"/><path d="m439.898438 104.5625h-89.617188c-4.265625 0-7.726562-3.457031-7.726562-7.726562 0-4.269532 3.460937-7.726563 7.726562-7.726563h89.617188c4.265624 0 7.722656 3.457031 7.722656 7.726563 0 4.265624-3.457032 7.726562-7.722656 7.726562zm0 0" fill="#516980"/></svg>
